<?xml version="1.0" encoding="UTF-8"?>
<svg xmlns="http://www.w3.org/2000/svg" xmlns:xlink="http://www.w3.org/1999/xlink" width="1012.5pt" height="1012.49997pt" viewBox="0 0 1012.5 1012.49997" version="1.2">
<defs>
<clipPath id="clip1">
  <path d="M 93 67.691406 L 921 67.691406 L 921 407 L 93 407 Z M 93 67.691406 "/>
</clipPath>
<clipPath id="clip2">
  <path d="M 807.617188 454.496094 L 811.753906 454.496094 L 811.753906 469.203125 L 807.617188 469.203125 Z M 807.617188 454.496094 "/>
</clipPath>
<clipPath id="clip3">
  <path d="M 44 886 L 952.777344 886 L 952.777344 977.960938 L 44 977.960938 Z M 44 886 "/>
</clipPath>
<clipPath id="clip4">
  <path d="M 25.777344 325 L 952.777344 325 L 952.777344 455 L 25.777344 455 Z M 25.777344 325 "/>
</clipPath>
<clipPath id="clip5">
  <path d="M 40.234375 346.40625 L 935.285156 346.40625 L 935.285156 354.28125 L 40.234375 354.28125 Z M 40.234375 354.28125 L 48.109375 354.28125 L 48.109375 427.105469 L 40.234375 427.105469 Z M 927.410156 354.28125 L 935.285156 354.28125 L 935.285156 427.105469 L 927.410156 427.105469 Z M 526.839844 427.105469 L 656.183594 427.105469 L 656.183594 434.976562 L 526.839844 434.976562 Z M 331.972656 427.105469 L 479.015625 427.105469 L 479.015625 434.976562 L 331.972656 434.976562 Z M 170.050781 427.105469 L 284.148438 427.105469 L 284.148438 434.976562 L 170.050781 434.976562 Z M 40.234375 427.105469 L 122.226562 427.105469 L 122.226562 434.976562 L 40.234375 434.976562 Z M 704.011719 427.105469 L 935.285156 427.105469 L 935.285156 434.976562 L 704.011719 434.976562 Z M 704.011719 427.105469 "/>
</clipPath>
</defs>
<g id="surface1">
<path style=" stroke:none;fill-rule:nonzero;fill:rgb(89.019775%,88.62915%,87.838745%);fill-opacity:1;" d="M 197.773438 806.566406 L 807.617188 806.566406 L 807.617188 387.390625 L 197.773438 387.390625 Z M 197.773438 806.566406 "/>
<g clip-path="url(#clip1)" clip-rule="nonzero">
<path style=" stroke:none;fill-rule:nonzero;fill:rgb(13.729858%,33.729553%,45.489502%);fill-opacity:1;" d="M 506.835938 67.8125 L 713.667969 237.175781 L 920.511719 406.53125 L 93.15625 406.53125 L 299.992188 237.175781 L 506.835938 67.8125 "/>
</g>
<g clip-path="url(#clip2)" clip-rule="nonzero">
<path style=" stroke:none;fill-rule:nonzero;fill:rgb(80.389404%,79.998779%,79.219055%);fill-opacity:1;" d="M 807.617188 469.203125 L 811.753906 469.203125 L 811.753906 454.496094 L 807.617188 454.496094 L 807.617188 469.203125 "/>
</g>
<path style=" stroke:none;fill-rule:nonzero;fill:rgb(69.40918%,69.40918%,69.018555%);fill-opacity:1;" d="M 807.617188 454.496094 L 704.011719 454.496094 L 704.011719 469.203125 L 807.617188 469.203125 L 807.617188 454.496094 M 656.183594 454.496094 L 526.839844 454.496094 L 526.839844 469.203125 L 656.183594 469.203125 L 656.183594 454.496094 M 479.015625 454.496094 L 331.972656 454.496094 L 331.972656 469.203125 L 479.015625 469.203125 L 479.015625 454.496094 M 284.148438 454.496094 L 201.917969 454.496094 L 201.917969 469.203125 L 284.148438 469.203125 L 284.148438 454.496094 "/>
<path style=" stroke:none;fill-rule:nonzero;fill:rgb(80.389404%,79.998779%,79.219055%);fill-opacity:1;" d="M 837.582031 806.566406 L 885.410156 806.566406 L 885.410156 406.53125 L 837.582031 406.53125 Z M 837.582031 806.566406 "/>
<path style=" stroke:none;fill-rule:nonzero;fill:rgb(13.729858%,33.729553%,45.489502%);fill-opacity:1;" d="M 88.78125 890.210938 L 916.613281 890.210938 L 916.613281 806.566406 L 88.78125 806.566406 Z M 88.78125 890.210938 "/>
<path style=" stroke:none;fill-rule:nonzero;fill:rgb(72.549438%,72.158813%,71.759033%);fill-opacity:1;" d="M 877.699219 780.019531 C 877.699219 782.117188 876.007812 783.816406 873.917969 783.816406 C 871.816406 783.816406 870.113281 782.117188 870.113281 780.019531 L 870.113281 472.996094 C 870.113281 470.902344 871.816406 469.203125 873.917969 469.203125 C 876.007812 469.203125 877.699219 470.902344 877.699219 472.996094 L 877.699219 780.019531 "/>
<path style=" stroke:none;fill-rule:nonzero;fill:rgb(80.389404%,79.998779%,79.219055%);fill-opacity:1;" d="M 88.78125 872.066406 L 84.644531 872.066406 L 84.644531 904.921875 L 912.472656 904.921875 L 912.472656 890.210938 L 88.78125 890.210938 L 88.78125 872.066406 "/>
<path style=" stroke:none;fill-rule:nonzero;fill:rgb(10.978699%,26.669312%,35.289001%);fill-opacity:1;" d="M 88.78125 890.210938 L 912.472656 890.210938 L 912.472656 872.066406 L 88.78125 872.066406 Z M 88.78125 890.210938 "/>
<path style=" stroke:none;fill-rule:nonzero;fill:rgb(72.549438%,72.158813%,71.759033%);fill-opacity:1;" d="M 852.875 780.019531 C 852.875 782.117188 851.171875 783.816406 849.085938 783.816406 C 846.984375 783.816406 845.277344 782.117188 845.277344 780.019531 L 845.277344 472.996094 C 845.277344 470.902344 846.984375 469.203125 849.085938 469.203125 C 851.171875 469.203125 852.875 470.902344 852.875 472.996094 L 852.875 780.019531 "/>
<path style=" stroke:none;fill-rule:nonzero;fill:rgb(96.859741%,56.079102%,14.509583%);fill-opacity:1;" d="M 920.132812 482.53125 C 920.132812 487.097656 916.425781 490.804688 911.863281 490.804688 L 811.136719 490.804688 C 806.570312 490.804688 802.863281 487.097656 802.863281 482.53125 L 802.863281 455.875 C 802.863281 451.308594 806.570312 447.605469 811.136719 447.605469 L 911.863281 447.605469 C 916.425781 447.605469 920.132812 451.308594 920.132812 455.875 L 920.132812 482.53125 "/>
<g clip-path="url(#clip3)" clip-rule="nonzero">
<path style=" stroke:none;fill-rule:nonzero;fill:rgb(13.729858%,33.729553%,45.489502%);fill-opacity:1;" d="M 952.941406 977.960938 L 44.171875 977.960938 L 44.171875 886.121094 L 952.941406 886.121094 L 952.941406 977.960938 "/>
</g>
<g clip-path="url(#clip4)" clip-rule="nonzero">
<path style=" stroke:none;fill-rule:nonzero;fill:rgb(80.389404%,79.998779%,79.219055%);fill-opacity:1;" d="M 25.777344 454.496094 L 952.941406 454.496094 L 952.941406 325.804688 L 25.777344 325.804688 Z M 25.777344 454.496094 "/>
</g>
<path style=" stroke:none;fill-rule:nonzero;fill:rgb(96.859741%,56.079102%,14.509583%);fill-opacity:1;" d="M 912.472656 825.871094 C 912.472656 830.4375 908.765625 834.140625 904.195312 834.140625 L 803.46875 834.140625 C 798.894531 834.140625 795.191406 830.4375 795.191406 825.871094 L 795.191406 799.210938 C 795.191406 794.644531 798.894531 790.941406 803.46875 790.941406 L 904.195312 790.941406 C 908.765625 790.941406 912.472656 794.644531 912.472656 799.210938 L 912.472656 825.871094 "/>
<path style=" stroke:none;fill-rule:nonzero;fill:rgb(50.19989%,50.588989%,50.979614%);fill-opacity:1;" d="M 284.148438 678.707031 L 275.300781 678.707031 C 254.777344 678.707031 238.125 695.34375 238.125 715.863281 L 238.125 806.566406 L 349.941406 806.566406 L 349.941406 715.863281 C 349.941406 702.367188 342.742188 690.554688 331.972656 684.050781 L 331.972656 806.566406 L 284.148438 806.566406 L 284.148438 678.707031 "/>
<path style=" stroke:none;fill-rule:nonzero;fill:rgb(8.628845%,19.60907%,25.489807%);fill-opacity:1;" d="M 238.125 810.808594 L 349.941406 810.808594 L 349.941406 806.566406 L 238.125 806.566406 Z M 238.125 810.808594 "/>
<path style=" stroke:none;fill-rule:nonzero;fill:rgb(50.19989%,50.588989%,50.979614%);fill-opacity:1;" d="M 730.824219 678.707031 L 704.011719 678.707031 L 704.011719 806.566406 L 656.183594 806.566406 L 656.183594 715.863281 L 656.183594 806.566406 L 768.003906 806.566406 L 768.003906 715.863281 C 768.003906 695.34375 751.355469 678.707031 730.824219 678.707031 "/>
<path style=" stroke:none;fill-rule:nonzero;fill:rgb(8.628845%,19.60907%,25.489807%);fill-opacity:1;" d="M 656.183594 810.808594 L 768.003906 810.808594 L 768.003906 806.566406 L 656.183594 806.566406 Z M 656.183594 810.808594 "/>
<path style=" stroke:none;fill-rule:nonzero;fill:rgb(50.19989%,50.588989%,50.979614%);fill-opacity:1;" d="M 541.0625 536.007812 L 526.839844 536.007812 L 526.839844 679.101562 C 544.808594 681.71875 558.601562 697.179688 558.601562 715.863281 L 558.601562 806.566406 L 617.210938 806.566406 L 617.210938 612.105469 C 617.210938 570.074219 583.113281 536.007812 541.0625 536.007812 M 479.015625 536.007812 L 464.328125 536.007812 C 422.277344 536.007812 388.1875 570.074219 388.1875 612.105469 L 388.1875 806.566406 L 446.792969 806.566406 L 446.792969 715.863281 C 446.792969 697.015625 460.824219 681.453125 479.015625 679.03125 L 479.015625 536.007812 "/>
<path style=" stroke:none;fill-rule:nonzero;fill:rgb(8.628845%,19.60907%,25.489807%);fill-opacity:1;" d="M 446.792969 810.808594 L 558.601562 810.808594 L 558.601562 806.566406 L 446.792969 806.566406 Z M 446.792969 810.808594 "/>
<path style=" stroke:none;fill-rule:nonzero;fill:rgb(28.62854%,28.62854%,29.019165%);fill-opacity:1;" d="M 479.015625 679.03125 C 460.824219 681.453125 446.792969 697.015625 446.792969 715.863281 L 446.792969 806.566406 L 558.601562 806.566406 L 558.601562 715.863281 C 558.601562 697.179688 544.808594 681.71875 526.839844 679.101562 L 526.839844 806.566406 L 479.015625 806.566406 L 479.015625 679.03125 "/>
<path style=" stroke:none;fill-rule:nonzero;fill:rgb(80.389404%,79.998779%,79.219055%);fill-opacity:1;" d="M 122.226562 806.566406 L 170.050781 806.566406 L 170.050781 406.53125 L 122.226562 406.53125 Z M 122.226562 806.566406 "/>
<path style=" stroke:none;fill-rule:nonzero;fill:rgb(96.859741%,56.079102%,14.509583%);fill-opacity:1;" d="M 204.546875 825.871094 C 204.546875 830.4375 200.835938 834.140625 196.265625 834.140625 L 95.546875 834.140625 C 90.980469 834.140625 87.269531 830.4375 87.269531 825.871094 L 87.269531 799.210938 C 87.269531 794.644531 90.980469 790.941406 95.546875 790.941406 L 196.265625 790.941406 C 200.835938 790.941406 204.546875 794.644531 204.546875 799.210938 L 204.546875 825.871094 "/>
<path style=" stroke:none;fill-rule:nonzero;fill:rgb(72.549438%,72.158813%,71.759033%);fill-opacity:1;" d="M 164.535156 780.019531 C 164.535156 782.117188 162.832031 783.816406 160.742188 783.816406 C 158.644531 783.816406 156.945312 782.117188 156.945312 780.019531 L 156.945312 472.996094 C 156.945312 470.902344 158.644531 469.203125 160.742188 469.203125 C 162.832031 469.203125 164.535156 470.902344 164.535156 472.996094 L 164.535156 780.019531 "/>
<path style=" stroke:none;fill-rule:nonzero;fill:rgb(72.549438%,72.158813%,71.759033%);fill-opacity:1;" d="M 139.699219 780.019531 C 139.699219 782.117188 138.003906 783.816406 135.90625 783.816406 C 133.816406 783.816406 132.113281 782.117188 132.113281 780.019531 L 132.113281 472.996094 C 132.113281 470.902344 133.816406 469.203125 135.90625 469.203125 C 138.003906 469.203125 139.699219 470.902344 139.699219 472.996094 L 139.699219 780.019531 "/>
<path style=" stroke:none;fill-rule:nonzero;fill:rgb(96.859741%,56.079102%,14.509583%);fill-opacity:1;" d="M 204.546875 489.421875 C 204.546875 493.988281 200.835938 497.695312 196.265625 497.695312 L 95.546875 497.695312 C 90.980469 497.695312 87.269531 493.988281 87.269531 489.421875 L 87.269531 462.765625 C 87.269531 458.199219 90.980469 454.496094 95.546875 454.496094 L 196.265625 454.496094 C 200.835938 454.496094 204.546875 458.199219 204.546875 462.765625 L 204.546875 489.421875 "/>
<path style=" stroke:none;fill-rule:nonzero;fill:rgb(80.389404%,79.998779%,79.219055%);fill-opacity:1;" d="M 284.148438 806.566406 L 331.972656 806.566406 L 331.972656 406.53125 L 284.148438 406.53125 Z M 284.148438 806.566406 "/>
<path style=" stroke:none;fill-rule:nonzero;fill:rgb(96.859741%,56.079102%,14.509583%);fill-opacity:1;" d="M 366.46875 825.871094 C 366.46875 830.4375 362.757812 834.140625 358.191406 834.140625 L 257.46875 834.140625 C 252.902344 834.140625 249.195312 830.4375 249.195312 825.871094 L 249.195312 799.210938 C 249.195312 794.644531 252.902344 790.941406 257.46875 790.941406 L 358.191406 790.941406 C 362.757812 790.941406 366.46875 794.644531 366.46875 799.210938 L 366.46875 825.871094 "/>
<path style=" stroke:none;fill-rule:nonzero;fill:rgb(72.549438%,72.158813%,71.759033%);fill-opacity:1;" d="M 326.460938 780.019531 C 326.460938 782.117188 324.761719 783.816406 322.664062 783.816406 C 320.570312 783.816406 318.867188 782.117188 318.867188 780.019531 L 318.867188 472.996094 C 318.867188 470.902344 320.570312 469.203125 322.664062 469.203125 C 324.761719 469.203125 326.460938 470.902344 326.460938 472.996094 L 326.460938 780.019531 "/>
<path style=" stroke:none;fill-rule:nonzero;fill:rgb(72.549438%,72.158813%,71.759033%);fill-opacity:1;" d="M 301.625 780.019531 C 301.625 782.117188 299.925781 783.816406 297.828125 783.816406 C 295.738281 783.816406 294.035156 782.117188 294.035156 780.019531 L 294.035156 472.996094 C 294.035156 470.902344 295.738281 469.203125 297.828125 469.203125 C 299.925781 469.203125 301.625 470.902344 301.625 472.996094 L 301.625 780.019531 "/>
<path style=" stroke:none;fill-rule:nonzero;fill:rgb(96.859741%,56.079102%,14.509583%);fill-opacity:1;" d="M 366.46875 489.421875 C 366.46875 493.988281 362.757812 497.695312 358.191406 497.695312 L 257.46875 497.695312 C 252.902344 497.695312 249.195312 493.988281 249.195312 489.421875 L 249.195312 462.765625 C 249.195312 458.199219 252.902344 454.496094 257.46875 454.496094 L 358.191406 454.496094 C 362.757812 454.496094 366.46875 458.199219 366.46875 462.765625 L 366.46875 489.421875 "/>
<path style=" stroke:none;fill-rule:nonzero;fill:rgb(80.389404%,79.998779%,79.219055%);fill-opacity:1;" d="M 479.015625 806.566406 L 526.839844 806.566406 L 526.839844 406.53125 L 479.015625 406.53125 Z M 479.015625 806.566406 "/>
<path style=" stroke:none;fill-rule:nonzero;fill:rgb(96.859741%,56.079102%,14.509583%);fill-opacity:1;" d="M 561.328125 825.871094 C 561.328125 830.4375 557.625 834.140625 553.054688 834.140625 L 452.335938 834.140625 C 447.765625 834.140625 444.058594 830.4375 444.058594 825.871094 L 444.058594 799.210938 C 444.058594 794.644531 447.765625 790.941406 452.335938 790.941406 L 553.054688 790.941406 C 557.625 790.941406 561.328125 794.644531 561.328125 799.210938 L 561.328125 825.871094 "/>
<path style=" stroke:none;fill-rule:nonzero;fill:rgb(72.549438%,72.158813%,71.759033%);fill-opacity:1;" d="M 521.328125 780.019531 C 521.328125 782.117188 519.625 783.816406 517.53125 783.816406 C 515.433594 783.816406 513.730469 782.117188 513.730469 780.019531 L 513.730469 472.996094 C 513.730469 470.902344 515.433594 469.203125 517.53125 469.203125 C 519.625 469.203125 521.328125 470.902344 521.328125 472.996094 L 521.328125 780.019531 "/>
<path style=" stroke:none;fill-rule:nonzero;fill:rgb(72.549438%,72.158813%,71.759033%);fill-opacity:1;" d="M 496.492188 780.019531 C 496.492188 782.117188 494.789062 783.816406 492.695312 783.816406 C 490.601562 783.816406 488.902344 782.117188 488.902344 780.019531 L 488.902344 472.996094 C 488.902344 470.902344 490.601562 469.203125 492.695312 469.203125 C 494.789062 469.203125 496.492188 470.902344 496.492188 472.996094 L 496.492188 780.019531 "/>
<path style=" stroke:none;fill-rule:nonzero;fill:rgb(96.859741%,56.079102%,14.509583%);fill-opacity:1;" d="M 561.328125 489.421875 C 561.328125 493.988281 557.625 497.695312 553.054688 497.695312 L 452.335938 497.695312 C 447.765625 497.695312 444.058594 493.988281 444.058594 489.421875 L 444.058594 462.765625 C 444.058594 458.199219 447.765625 454.496094 452.335938 454.496094 L 553.054688 454.496094 C 557.625 454.496094 561.328125 458.199219 561.328125 462.765625 L 561.328125 489.421875 "/>
<path style=" stroke:none;fill-rule:nonzero;fill:rgb(80.389404%,79.998779%,79.219055%);fill-opacity:1;" d="M 656.183594 806.566406 L 704.011719 806.566406 L 704.011719 406.53125 L 656.183594 406.53125 Z M 656.183594 806.566406 "/>
<path style=" stroke:none;fill-rule:nonzero;fill:rgb(96.859741%,56.079102%,14.509583%);fill-opacity:1;" d="M 738.503906 825.871094 C 738.503906 830.4375 734.800781 834.140625 730.226562 834.140625 L 629.507812 834.140625 C 624.941406 834.140625 621.226562 830.4375 621.226562 825.871094 L 621.226562 799.210938 C 621.226562 794.644531 624.941406 790.941406 629.507812 790.941406 L 730.226562 790.941406 C 734.800781 790.941406 738.503906 794.644531 738.503906 799.210938 L 738.503906 825.871094 "/>
<path style=" stroke:none;fill-rule:nonzero;fill:rgb(72.549438%,72.158813%,71.759033%);fill-opacity:1;" d="M 698.492188 780.019531 C 698.492188 782.117188 696.796875 783.816406 694.703125 783.816406 C 692.609375 783.816406 690.90625 782.117188 690.90625 780.019531 L 690.90625 472.996094 C 690.90625 470.902344 692.609375 469.203125 694.703125 469.203125 C 696.796875 469.203125 698.492188 470.902344 698.492188 472.996094 L 698.492188 780.019531 "/>
<path style=" stroke:none;fill-rule:nonzero;fill:rgb(72.549438%,72.158813%,71.759033%);fill-opacity:1;" d="M 673.65625 780.019531 C 673.65625 782.117188 671.964844 783.816406 669.871094 783.816406 C 667.773438 783.816406 666.070312 782.117188 666.070312 780.019531 L 666.070312 472.996094 C 666.070312 470.902344 667.773438 469.203125 669.871094 469.203125 C 671.964844 469.203125 673.65625 470.902344 673.65625 472.996094 L 673.65625 780.019531 "/>
<path style=" stroke:none;fill-rule:nonzero;fill:rgb(96.859741%,56.079102%,14.509583%);fill-opacity:1;" d="M 738.503906 489.421875 C 738.503906 493.988281 734.800781 497.695312 730.226562 497.695312 L 629.507812 497.695312 C 624.941406 497.695312 621.226562 493.988281 621.226562 489.421875 L 621.226562 462.765625 C 621.226562 458.199219 624.941406 454.496094 629.507812 454.496094 L 730.226562 454.496094 C 734.800781 454.496094 738.503906 458.199219 738.503906 462.765625 L 738.503906 489.421875 "/>
<g clip-path="url(#clip5)" clip-rule="nonzero">
<path style=" stroke:none;fill-rule:nonzero;fill:rgb(62.348938%,62.348938%,61.959839%);fill-opacity:1;" d="M 40.234375 434.976562 L 935.285156 434.976562 L 935.285156 346.40625 L 40.234375 346.40625 L 40.234375 434.976562 "/>
</g>
<path style=" stroke:none;fill-rule:nonzero;fill:rgb(62.348938%,62.348938%,61.959839%);fill-opacity:1;" d="M 122.226562 434.976562 L 170.050781 434.976562 L 170.050781 427.105469 L 122.226562 427.105469 Z M 122.226562 434.976562 "/>
<path style=" stroke:none;fill-rule:nonzero;fill:rgb(62.348938%,62.348938%,61.959839%);fill-opacity:1;" d="M 284.148438 434.976562 L 331.972656 434.976562 L 331.972656 427.105469 L 284.148438 427.105469 Z M 284.148438 434.976562 "/>
<path style=" stroke:none;fill-rule:nonzero;fill:rgb(62.348938%,62.348938%,61.959839%);fill-opacity:1;" d="M 479.015625 434.976562 L 526.839844 434.976562 L 526.839844 427.105469 L 479.015625 427.105469 Z M 479.015625 434.976562 "/>
<path style=" stroke:none;fill-rule:nonzero;fill:rgb(62.348938%,62.348938%,61.959839%);fill-opacity:1;" d="M 656.183594 434.976562 L 704.011719 434.976562 L 704.011719 427.105469 L 656.183594 427.105469 Z M 656.183594 434.976562 "/>
<path style=" stroke:none;fill-rule:nonzero;fill:rgb(21.569824%,21.569824%,21.569824%);fill-opacity:1;" d="M 425.183594 362.152344 C 424.3125 362.152344 423.386719 362.171875 422.398438 362.210938 C 421.40625 362.25 420.410156 362.308594 419.402344 362.394531 C 418.398438 362.476562 417.390625 362.585938 416.402344 362.707031 C 415.414062 362.832031 414.507812 362.996094 413.679688 363.203125 L 413.679688 404.730469 C 414.507812 404.933594 415.414062 405.097656 416.402344 405.21875 C 417.390625 405.347656 418.398438 405.445312 419.402344 405.53125 C 420.410156 405.613281 421.421875 405.675781 422.425781 405.710938 C 423.441406 405.757812 424.378906 405.777344 425.246094 405.777344 C 432.085938 405.777344 437.089844 404.699219 440.246094 402.53125 C 443.390625 400.371094 444.972656 397.148438 444.972656 392.863281 C 444.972656 389.9375 444.230469 387.675781 442.738281 386.0625 C 441.253906 384.453125 439.257812 383.28125 436.746094 382.542969 C 438.601562 381.800781 440.089844 380.679688 441.199219 379.175781 C 442.308594 377.671875 442.867188 375.746094 442.867188 373.394531 C 442.867188 371.296875 442.414062 369.523438 441.503906 368.078125 C 440.597656 366.644531 439.351562 365.472656 437.765625 364.589844 C 436.175781 363.703125 434.300781 363.078125 432.140625 362.707031 C 429.976562 362.332031 427.660156 362.152344 425.183594 362.152344 M 419.613281 380.625 L 419.613281 367.40625 C 420.316406 367.320312 421.101562 367.253906 421.96875 367.21875 C 422.839844 367.175781 424.027344 367.152344 425.554688 367.152344 C 427.082031 367.152344 428.523438 367.277344 429.886719 367.527344 C 431.242188 367.777344 432.425781 368.152344 433.4375 368.671875 C 434.445312 369.183594 435.238281 369.867188 435.816406 370.710938 C 436.390625 371.550781 436.683594 372.59375 436.683594 373.828125 C 436.683594 375.144531 436.40625 376.242188 435.847656 377.101562 C 435.292969 377.96875 434.53125 378.671875 433.5625 379.203125 C 432.59375 379.742188 431.449219 380.113281 430.132812 380.316406 C 428.808594 380.527344 427.40625 380.625 425.925781 380.625 L 419.613281 380.625 M 425.609375 400.773438 C 424.667969 400.773438 423.828125 400.761719 423.109375 400.742188 C 422.394531 400.722656 421.761719 400.691406 421.222656 400.648438 C 420.605469 400.613281 420.070312 400.570312 419.613281 400.523438 L 419.613281 385.445312 L 427.347656 385.445312 C 429.078125 385.445312 430.648438 385.570312 432.046875 385.816406 C 433.445312 386.0625 434.648438 386.480469 435.664062 387.054688 C 436.671875 387.632812 437.441406 388.402344 437.976562 389.375 C 438.519531 390.34375 438.789062 391.523438 438.789062 392.925781 C 438.789062 394.492188 438.429688 395.789062 437.707031 396.816406 C 436.984375 397.847656 436.027344 398.648438 434.832031 399.226562 C 433.632812 399.808594 432.246094 400.207031 430.65625 400.433594 C 429.0625 400.664062 427.386719 400.773438 425.609375 400.773438 "/>
<path style=" stroke:none;fill-rule:nonzero;fill:rgb(21.569824%,21.569824%,21.569824%);fill-opacity:1;" d="M 471.378906 362.585938 L 465.867188 362.585938 C 464.382812 365.667969 462.960938 368.792969 461.605469 371.941406 C 460.242188 375.097656 458.871094 378.402344 457.488281 381.859375 C 456.109375 385.320312 454.699219 388.976562 453.257812 392.832031 C 451.808594 396.6875 450.265625 400.871094 448.621094 405.410156 L 454.863281 405.410156 L 458.757812 394.46875 L 478.167969 394.46875 C 478.835938 396.320312 479.472656 398.152344 480.089844 399.941406 C 480.707031 401.726562 481.371094 403.550781 482.070312 405.410156 L 488.628906 405.410156 C 486.980469 400.871094 485.433594 396.6875 483.980469 392.832031 C 482.546875 388.976562 481.132812 385.320312 479.753906 381.859375 C 478.371094 378.402344 476.996094 375.097656 475.636719 371.941406 C 474.28125 368.792969 472.855469 365.667969 471.378906 362.585938 M 460.492188 389.523438 C 461.765625 385.941406 463.058594 382.476562 464.355469 379.113281 C 465.652344 375.753906 467.023438 372.53125 468.464844 369.441406 C 469.867188 372.53125 471.21875 375.753906 472.511719 379.113281 C 473.820312 382.476562 475.121094 385.941406 476.441406 389.523438 L 460.492188 389.523438 "/>
<path style=" stroke:none;fill-rule:nonzero;fill:rgb(21.569824%,21.569824%,21.569824%);fill-opacity:1;" d="M 528.820312 362.585938 L 522.9375 362.585938 L 522.9375 394.28125 C 521.625 392.097656 520 389.609375 518.085938 386.804688 C 516.171875 384.003906 514.136719 381.148438 511.964844 378.246094 C 509.800781 375.34375 507.621094 372.523438 505.414062 369.785156 C 503.203125 367.042969 501.132812 364.640625 499.195312 362.585938 L 494.433594 362.585938 L 494.433594 405.410156 L 500.308594 405.410156 L 500.308594 371.972656 C 501.460938 373.296875 502.714844 374.816406 504.085938 376.546875 C 505.449219 378.28125 506.84375 380.121094 508.292969 382.082031 C 509.734375 384.035156 511.1875 386.0625 512.648438 388.167969 C 514.105469 390.265625 515.519531 392.335938 516.882812 394.375 C 518.253906 396.414062 519.515625 398.382812 520.679688 400.273438 C 521.867188 402.175781 522.902344 403.886719 523.8125 405.410156 L 528.820312 405.410156 L 528.820312 362.585938 "/>
<path style=" stroke:none;fill-rule:nonzero;fill:rgb(21.569824%,21.569824%,21.569824%);fill-opacity:1;" d="M 571.175781 362.585938 L 563.941406 362.585938 C 562.914062 363.777344 561.640625 365.167969 560.132812 366.753906 C 558.625 368.339844 557.035156 369.996094 555.347656 371.730469 C 553.652344 373.457031 551.945312 375.183594 550.214844 376.886719 C 548.480469 378.59375 546.894531 380.132812 545.457031 381.492188 L 545.457031 362.585938 L 539.460938 362.585938 L 539.460938 405.410156 L 545.457031 405.410156 L 545.457031 385.078125 C 547.1875 386.148438 548.96875 387.449219 550.796875 388.96875 C 552.632812 390.492188 554.453125 392.152344 556.246094 393.941406 C 558.039062 395.738281 559.738281 397.609375 561.347656 399.5625 C 562.953125 401.523438 564.375 403.46875 565.605469 405.410156 L 572.652344 405.410156 C 571.546875 403.46875 570.144531 401.433594 568.484375 399.289062 C 566.820312 397.148438 565.035156 395.042969 563.136719 392.984375 C 561.238281 390.925781 559.304688 388.992188 557.328125 387.175781 C 555.347656 385.367188 553.46875 383.84375 551.691406 382.601562 C 553.21875 381.117188 554.851562 379.511719 556.585938 377.785156 C 558.3125 376.054688 560.058594 374.289062 561.808594 372.5 C 563.5625 370.710938 565.242188 368.957031 566.84375 367.246094 C 568.449219 365.535156 569.894531 363.984375 571.175781 362.585938 "/>
</g>
</svg>
