<?xml version="1.0" encoding="UTF-8"?>
<svg xmlns="http://www.w3.org/2000/svg" xmlns:xlink="http://www.w3.org/1999/xlink" width="1012.5pt" height="1012.49997pt" viewBox="0 0 1012.5 1012.49997" version="1.2">
<defs>
<clipPath id="clip1">
  <path d="M 101.25 63 L 279 63 L 279 295 L 101.25 295 Z M 101.25 63 "/>
</clipPath>
</defs>
<g id="surface1">
<path style=" stroke:none;fill-rule:nonzero;fill:rgb(88.62915%,40.388489%,42.749023%);fill-opacity:1;" d="M 589.164062 812.367188 L 589.164062 885.167969 C 594.363281 884.816406 599.480469 884.386719 604.597656 883.800781 C 610.65625 910.59375 619.679688 946.683594 624.800781 948.871094 L 712.871094 948.871094 C 712.871094 948.871094 729.832031 945.707031 750.695312 830.296875 C 751.203125 824.164062 750.734375 818.226562 749.523438 812.367188 L 589.164062 812.367188 "/>
<path style=" stroke:none;fill-rule:nonzero;fill:rgb(88.62915%,40.388489%,42.749023%);fill-opacity:1;" d="M 377.070312 812.367188 L 377.070312 885.167969 C 382.230469 884.816406 387.386719 884.386719 392.46875 883.800781 C 398.523438 910.59375 407.550781 946.683594 412.707031 948.871094 L 500.742188 948.871094 C 500.742188 948.871094 517.738281 945.707031 538.5625 830.296875 C 539.070312 824.164062 538.640625 818.226562 537.429688 812.367188 L 377.070312 812.367188 "/>
<path style=" stroke:none;fill-rule:nonzero;fill:rgb(96.859741%,57.649231%,55.688477%);fill-opacity:1;" d="M 236.953125 583.929688 C 220.152344 571.234375 231.40625 514.683594 252.230469 526.789062 C 274.777344 539.949219 236.953125 583.929688 236.953125 583.929688 Z M 252.230469 593.300781 C 252.230469 593.300781 301.152344 527.179688 252.230469 512.339844 C 230.3125 505.699219 216.246094 526.007812 213.507812 547.527344 C 210.773438 568.890625 224.058594 589.394531 224.058594 589.394531 C 190.769531 603.339844 171.230469 565.765625 171.230469 565.765625 C 182.953125 628.570312 236.953125 610.917969 236.953125 610.917969 C 252.230469 642.589844 276.886719 636.730469 276.886719 636.730469 L 276.886719 615.601562 C 258.09375 609.746094 252.230469 593.300781 252.230469 593.300781 "/>
<path style=" stroke:none;fill-rule:nonzero;fill:rgb(96.859741%,57.649231%,55.688477%);fill-opacity:1;" d="M 900.699219 745.035156 C 900.699219 745.035156 911.25 642.941406 900.699219 637.085938 C 890.148438 631.226562 886.632812 648.058594 886.632812 648.058594 L 829.3125 616.578125 C 827.164062 599.628906 822.980469 583.226562 816.964844 567.484375 C 816.964844 567.484375 841.738281 419.65625 816.964844 419.617188 C 796.175781 419.617188 755.734375 438.835938 726.117188 454.574219 C 677.785156 420.984375 616.242188 400.832031 549.269531 400.832031 C 393.640625 400.832031 267.507812 509.449219 267.507812 643.371094 C 267.507812 713.710938 302.285156 777.023438 357.808594 821.3125 C 379.378906 945.511719 397.234375 948.871094 397.234375 948.871094 L 485.304688 948.871094 C 490.503906 946.683594 499.644531 909.890625 505.703125 883.019531 C 519.886719 884.933594 534.460938 885.910156 549.269531 885.910156 C 561.929688 885.910156 574.394531 885.207031 586.585938 883.800781 C 592.640625 910.59375 601.667969 946.683594 606.785156 948.871094 L 694.859375 948.871094 C 694.859375 948.871094 711.855469 945.707031 732.683594 830.296875 C 732.683594 830.296875 897.105469 790.027344 900.699219 745.035156 "/>
<path style=" stroke:none;fill-rule:nonzero;fill:rgb(98.039246%,72.938538%,54.119873%);fill-opacity:1;" d="M 814.621094 458.363281 L 771.171875 497.652344 L 804.03125 547.527344 Z M 814.621094 458.363281 "/>
<path style=" stroke:none;fill-rule:nonzero;fill:rgb(39.99939%,19.219971%,19.60907%);fill-opacity:1;" d="M 807.625 615.289062 C 807.625 627.359375 801.023438 637.164062 792.894531 637.164062 C 784.769531 637.164062 778.164062 627.359375 778.164062 615.289062 C 778.164062 603.183594 784.769531 593.378906 792.894531 593.378906 C 801.023438 593.378906 807.625 603.183594 807.625 615.289062 "/>
<path style=" stroke:none;fill-rule:nonzero;fill:rgb(94.119263%,52.159119%,52.159119%);fill-opacity:1;" d="M 897.574219 754.605469 C 797.507812 766.4375 415.792969 794.988281 283.410156 562.839844 C 273.097656 588.066406 267.507812 615.171875 267.507812 643.371094 C 267.507812 713.710938 302.285156 777.023438 357.808594 821.3125 C 379.378906 945.511719 397.234375 948.871094 397.234375 948.871094 L 485.304688 948.871094 C 490.503906 946.683594 499.644531 909.890625 505.703125 883.019531 C 519.886719 884.933594 534.460938 885.910156 549.269531 885.910156 C 561.929688 885.910156 574.394531 885.207031 586.585938 883.800781 C 592.640625 910.59375 601.667969 946.683594 606.785156 948.871094 L 694.859375 948.871094 C 694.859375 948.871094 711.855469 945.707031 732.683594 830.296875 C 732.683594 830.296875 874.402344 795.574219 897.574219 754.605469 "/>
<path style="fill:none;stroke-width:42.066002;stroke-linecap:butt;stroke-linejoin:miter;stroke:rgb(79.998779%,28.62854%,29.40979%);stroke-opacity:1;stroke-miterlimit:10;" d="M 2073.297647 2291.195329 C 2073.297647 2291.195329 2237.600121 2339.303016 2453.897555 2291.195329 " transform="matrix(0.390738,0,0,-0.390563,-327.389597,1336.386417)"/>
<path style=" stroke:none;fill-rule:nonzero;fill:rgb(97.24884%,66.668701%,41.958618%);fill-opacity:1;" d="M 461.003906 230.46875 C 461.003906 230.46875 437.285156 237.34375 419.546875 247.847656 C 409.074219 254.058594 431.1875 300.144531 454.515625 317.214844 C 529.578125 372.046875 534.890625 384.3125 534.890625 384.3125 C 539.65625 390.992188 539.109375 396.808594 532.859375 405.636719 C 522.347656 420.476562 504.140625 414.230469 504.140625 414.230469 C 504.140625 414.230469 425.5625 375.09375 405.324219 368.140625 C 385.082031 361.191406 349.171875 338.265625 340.226562 329.164062 C 331.316406 320.0625 223.589844 212.152344 223.589844 212.152344 L 257.9375 112.324219 C 453.070312 141.734375 500.078125 148.488281 500.078125 148.488281 C 500.078125 148.488281 523.675781 149.738281 543.332031 169.074219 C 543.332031 169.074219 616.59375 234.257812 622.925781 246.714844 C 622.925781 246.714844 639.179688 262.613281 644.179688 274.601562 C 649.183594 286.632812 667.3125 330.375 670.554688 344.160156 C 670.554688 344.160156 651.644531 365.878906 625.660156 321.742188 C 625.660156 321.742188 602.917969 287.0625 600.222656 284.367188 C 600.222656 284.367188 544.503906 249.449219 536.140625 241.445312 C 536.140625 241.445312 481.828125 224.6875 461.003906 230.46875 "/>
<path style=" stroke:none;fill-rule:nonzero;fill:rgb(97.24884%,74.119568%,56.469727%);fill-opacity:1;" d="M 506.796875 367.050781 L 486.558594 394.582031 C 486.558594 394.582031 509.21875 412.082031 520.667969 402.355469 C 535.046875 390.171875 521.058594 376.5 506.796875 367.050781 "/>
<path style=" stroke:none;fill-rule:nonzero;fill:rgb(59.609985%,86.669922%,94.509888%);fill-opacity:1;" d="M 213.976562 266.363281 L 258.523438 281.671875 L 316.15625 114.277344 L 271.613281 98.929688 L 213.976562 266.363281 "/>
<g clip-path="url(#clip1)" clip-rule="nonzero">
<path style=" stroke:none;fill-rule:nonzero;fill:rgb(20.388794%,29.798889%,49.409485%);fill-opacity:1;" d="M 211.867188 294.40625 L 101.25 256.363281 L 167.714844 63.210938 L 278.371094 101.269531 L 211.867188 294.40625 "/>
</g>
<path style=" stroke:none;fill-rule:nonzero;fill:rgb(96.469116%,56.079102%,20.388794%);fill-opacity:1;" d="M 628.589844 362.753906 C 618.429688 392.164062 586.351562 407.824219 556.890625 397.707031 C 527.46875 387.554688 511.796875 355.488281 521.917969 326.078125 C 532.078125 296.628906 564.15625 280.96875 593.617188 291.085938 C 623.042969 301.238281 638.710938 333.304688 628.589844 362.753906 "/>
<path style=" stroke:none;fill-rule:nonzero;fill:rgb(98.039246%,73.329163%,20.388794%);fill-opacity:1;" d="M 616.59375 358.613281 C 608.703125 381.421875 583.851562 393.566406 561.03125 385.71875 C 538.210938 377.867188 526.058594 352.988281 533.914062 330.179688 C 541.769531 307.371094 566.65625 295.222656 589.476562 303.074219 C 612.296875 310.925781 624.449219 335.804688 616.59375 358.613281 "/>
<path style="fill:none;stroke-width:18.535999;stroke-linecap:round;stroke-linejoin:miter;stroke:rgb(96.469116%,56.079102%,20.388794%);stroke-opacity:1;stroke-miterlimit:10;" d="M 2357.695382 2563.598856 C 2357.695382 2563.598856 2363.603673 2586.802564 2334.602062 2599.304561 C 2311.398774 2609.296158 2294.40369 2605.795598 2286.495977 2590.803203 C 2286.495977 2590.803203 2275.299216 2569.299767 2286.895861 2557.197833 C 2300.601897 2542.795532 2346.39865 2525.802817 2336.30157 2494.997894 C 2336.30157 2494.997894 2328.803739 2467.003421 2290.894705 2480.095513 C 2290.894705 2480.095513 2253.895407 2491.697367 2259.903669 2515.201123 " transform="matrix(0.390738,0,0,-0.390563,-327.389597,1336.386417)"/>
<path style="fill:none;stroke-width:18.535999;stroke-linecap:round;stroke-linejoin:miter;stroke:rgb(96.469116%,56.079102%,20.388794%);stroke-opacity:1;stroke-miterlimit:10;" d="M 2321.895737 2625.698779 L 2314.697819 2604.695423 " transform="matrix(0.390738,0,0,-0.390563,-327.389597,1336.386417)"/>
<path style="fill:none;stroke-width:18.535999;stroke-linecap:round;stroke-linejoin:miter;stroke:rgb(96.469116%,56.079102%,20.388794%);stroke-opacity:1;stroke-miterlimit:10;" d="M 2348.697985 2616.497308 L 2341.500067 2595.60397 " transform="matrix(0.390738,0,0,-0.390563,-327.389597,1336.386417)"/>
<path style="fill:none;stroke-width:18.535999;stroke-linecap:round;stroke-linejoin:miter;stroke:rgb(96.469116%,56.079102%,20.388794%);stroke-opacity:1;stroke-miterlimit:10;" d="M 2276.298927 2485.096312 L 2269.101009 2464.202974 " transform="matrix(0.390738,0,0,-0.390563,-327.389597,1336.386417)"/>
<path style="fill:none;stroke-width:18.535999;stroke-linecap:round;stroke-linejoin:miter;stroke:rgb(96.469116%,56.079102%,20.388794%);stroke-opacity:1;stroke-miterlimit:10;" d="M 2303.001203 2475.904844 L 2295.903256 2455.001503 " transform="matrix(0.390738,0,0,-0.390563,-327.389597,1336.386417)"/>
</g>
</svg>
